<svg xmlns="http://www.w3.org/2000/svg" version="1.1" xmlns:xlink="http://www.w3.org/1999/xlink" xmlns:svgjs="http://svgjs.dev/svgjs" width="1500" height="162" viewBox="0 0 1500 162"><g transform="matrix(1,0,0,1,-0.8024774472955869,1.1910450189692767)"><svg viewBox="0 0 396 43" data-background-color="#ffffff" preserveAspectRatio="xMidYMid meet" height="162" width="1500" xmlns="http://www.w3.org/2000/svg" xmlns:xlink="http://www.w3.org/1999/xlink"><g id="tight-bounds" transform="matrix(1,0,0,1,0.21185404608604586,-0.24274939849556176)"><svg viewBox="0 0 395.52 43.485498796991145" height="43.485498796991145" width="395.52"><g><svg viewBox="0 0 534.3903135824232 58.75361382082369" height="43.485498796991145" width="395.52"><g><rect width="5.194570125579749" height="57.88959008816451" x="409.1183511140831" y="0.43201186632958866" fill="#2a2c35" opacity="1" stroke-width="0" stroke="transparent" fill-opacity="1" class="rect-qz-0" data-fill-palette-color="primary" rx="1%" id="qz-0" data-palette-color="#2a2c35"></rect></g><g transform="matrix(1,0,0,1,0,0.5760158217727813)"><svg viewBox="0 0 395.52 57.601582177278125" height="57.601582177278125" width="395.52"><g id="textblocktransform"><svg viewBox="0 0 395.52 57.601582177278125" height="57.601582177278125" width="395.52" id="textblock"><g><svg viewBox="0 0 395.52 57.601582177278125" height="57.601582177278125" width="395.52"><g transform="matrix(1,0,0,1,0,0)"><svg width="395.52" viewBox="4.15 -35 243.80331844897827 35.4" height="57.601582177278125" data-palette-color="#2a2c35"><g transform="matrix(1,0,0,1,0,0)"><g><svg width="10.118478448978307" viewBox="1.19 -36.36 66.81 36.36" height="5.5069476118808325" data-palette-color="#2a2c35" id="scriptelement" x="235.73923922448915" y="-30.598633805940416"><path d="M18.55-28.05L9.43 0 1.19 0 13.74-36.36 23.65-36.36 36.19 0 27.95 0 18.84-28.05 18.55-28.05ZM8.91-8.29L8.91-14.29 28.37-14.29 28.37-8.29 8.91-8.29ZM68 0L40.16 0 40.16-4.56 58.31-30.02 40.13-30.02 40.13-36.36 67.97-36.36 67.97-31.8 49.8-6.34 68-6.34 68 0Z" opacity="1" transform="matrix(1,0,0,1,0,0)" fill="#2a2c35" class="undefined-123" data-fill-palette-color="primary" id="yy-123"></path></svg></g></g><path d="M233.644-27.845C233.644-31.797 236.847-35 240.798-35 244.75-35 247.953-31.797 247.953-27.845 247.953-23.894 244.75-20.69 240.798-20.69 236.847-20.69 233.644-23.894 233.644-27.845ZM240.798-21.09C244.529-21.09 247.553-24.115 247.553-27.845 247.553-31.576 244.529-34.6 240.798-34.6 237.068-34.6 234.044-31.576 234.044-27.845 234.044-24.115 237.068-21.09 240.798-21.09Z" fill="#2a2c35" id="scriptcircle" data-fill-palette-color="primary"></path><g class="wordmark-text-0" data-fill-palette-color="primary" id="text-0"><path d="M4.65 0Q4.15 0 4.15-0.5L4.15-0.5 4.15-34.5Q4.15-35 4.65-35L4.65-35 14.4-35Q18.85-35 21.43-32.45 24-29.9 24-25.5L24-25.5 24-9.5Q24-5.1 21.43-2.55 18.85 0 14.4 0L14.4 0 4.65 0ZM7.7-3.3Q7.7-3.1 7.9-3.1L7.9-3.1 14.45-3.1Q17.2-3.15 18.8-4.93 20.4-6.7 20.45-9.8L20.45-9.8 20.45-25.2Q20.45-28.3 18.85-30.1 17.25-31.9 14.45-31.9L14.45-31.9 7.9-31.9Q7.7-31.9 7.7-31.7L7.7-31.7 7.7-3.3ZM40-25.55Q41.5-25.55 42.55-24.95L42.55-24.95Q42.9-24.8 42.8-24.35L42.8-24.35 42.2-21.75Q42.15-21.25 41.6-21.45L41.6-21.45Q40.8-21.8 39.85-21.8L39.85-21.8 39.25-21.75Q37.05-21.7 35.6-19.85 34.15-18 34.15-15.35L34.15-15.35 34.15-0.5Q34.15 0 33.65 0L33.65 0 31.1 0Q30.6 0 30.6-0.5L30.6-0.5 30.6-24.8Q30.6-25.3 31.1-25.3L31.1-25.3 33.65-25.3Q34.15-25.3 34.15-24.8L34.15-24.8 34.15-21.55Q34.15-21.4 34.22-21.4 34.3-21.4 34.35-21.5L34.35-21.5Q35.2-23.4 36.62-24.48 38.05-25.55 40-25.55L40-25.55ZM55.59-2.7Q57.5-2.7 58.87-3.68 60.25-4.65 60.84-6.3L60.84-6.3Q61-6.75 61.45-6.65L61.45-6.65 63.75-6.2Q64-6.15 64.07-5.98 64.15-5.8 64.09-5.6L64.09-5.6Q63.25-2.8 61-1.2 58.75 0.4 55.55 0.4L55.55 0.4Q51.9 0.4 49.59-1.53 47.3-3.45 46.75-6.75L46.75-6.75Q46.55-8 46.5-9.7 46.45-11.4 46.45-12.53 46.45-13.65 46.45-14.1L46.45-14.1Q46.45-16.65 46.65-18.25L46.65-18.25Q47.05-21.6 49.42-23.65 51.8-25.7 55.4-25.7L55.4-25.7Q59.25-25.7 61.65-23.5 64.05-21.3 64.34-17.7L64.34-17.7Q64.5-16.05 64.5-11.65L64.5-11.65Q64.5-11.15 64-11.15L64-11.15 50.2-11.15Q50-11.15 50-10.95L50-10.95Q50-9.4 50.09-7.5L50.09-7.5Q50.34-5.35 51.82-4.03 53.3-2.7 55.59-2.7L55.59-2.7ZM55.45-22.6Q53.2-22.6 51.77-21.28 50.34-19.95 50.09-17.8L50.09-17.8Q50-15.7 50-14.3L50-14.3Q50-14.1 50.2-14.1L50.2-14.1 60.75-14.1Q60.95-14.1 60.95-14.3L60.95-14.3Q60.95-15.75 60.75-17.75L60.75-17.75Q60.5-19.9 59.07-21.25 57.65-22.6 55.45-22.6L55.45-22.6ZM78.64-25.7Q82.64-25.7 84.92-23.4 87.19-21.1 87.19-17.3L87.19-17.3 87.19-0.5Q87.19 0 86.69 0L86.69 0 84.14 0Q83.64 0 83.64-0.5L83.64-0.5 83.64-2.3Q83.64-2.4 83.57-2.45 83.49-2.5 83.39-2.4L83.39-2.4Q82.29-1 80.59-0.3 78.89 0.4 76.79 0.4L76.79 0.4Q73.64 0.4 71.42-1.3 69.19-3 69.19-6.85L69.19-6.85Q69.19-10.85 71.77-12.93 74.34-15 78.79-15L78.79-15 83.44-15Q83.64-15 83.64-15.2L83.64-15.2 83.64-17.1Q83.64-19.65 82.37-21.13 81.09-22.6 78.59-22.6L78.59-22.6Q76.64-22.6 75.34-21.63 74.04-20.65 73.79-19.05L73.79-19.05Q73.74-18.6 73.24-18.6L73.24-18.6 70.49-18.75Q70.24-18.75 70.12-18.9 69.99-19.05 70.04-19.25L70.04-19.25Q70.39-22.15 72.77-23.93 75.14-25.7 78.64-25.7L78.64-25.7ZM77.49-2.7Q79.99-2.7 81.82-4.08 83.64-5.45 83.64-7.9L83.64-7.9 83.64-11.95Q83.64-12.15 83.44-12.15L83.44-12.15 79.04-12.15Q76.19-12.15 74.49-10.83 72.79-9.5 72.79-7.05L72.79-7.05Q72.79-4.85 74.09-3.78 75.39-2.7 77.49-2.7L77.49-2.7ZM116.59-25.65Q119.94-25.65 121.87-23.43 123.79-21.2 123.79-17.3L123.79-17.3 123.79-0.5Q123.79 0 123.29 0L123.29 0 120.79 0Q120.29 0 120.29-0.5L120.29-0.5 120.29-16.8Q120.29-19.45 118.97-21 117.64-22.55 115.49-22.55L115.49-22.55Q113.24-22.55 111.87-21.03 110.49-19.5 110.49-16.9L110.49-16.9 110.49-0.5Q110.49 0 109.99 0L109.99 0 107.44 0Q106.94 0 106.94-0.5L106.94-0.5 106.94-16.8Q106.94-19.45 105.62-21 104.29-22.55 102.14-22.55L102.14-22.55Q99.89-22.55 98.54-21.03 97.19-19.5 97.19-16.9L97.19-16.9 97.19-0.5Q97.19 0 96.69 0L96.69 0 94.14 0Q93.64 0 93.64-0.5L93.64-0.5 93.64-24.8Q93.64-25.3 94.14-25.3L94.14-25.3 96.69-25.3Q97.19-25.3 97.19-24.8L97.19-24.8 97.19-23.05Q97.19-22.95 97.27-22.93 97.34-22.9 97.44-23L97.44-23Q98.44-24.35 99.99-25 101.54-25.65 103.29-25.65L103.29-25.65Q105.49-25.65 107.14-24.65 108.79-23.65 109.64-21.85L109.64-21.85Q109.74-21.6 109.89-21.85L109.89-21.85Q110.89-23.8 112.67-24.73 114.44-25.65 116.59-25.65L116.59-25.65ZM138.94 0.4Q135.34 0.4 132.99-1.58 130.64-3.55 130.14-6.9L130.14-6.9Q129.84-9.45 129.84-12.7L129.84-12.7Q129.84-15.25 130.14-18.45L130.14-18.45Q130.59-21.7 132.99-23.7 135.39-25.7 138.94-25.7L138.94-25.7Q142.49-25.7 144.91-23.8 147.34-21.9 147.74-19.05L147.74-19.05 147.89-18 147.89-17.9Q147.89-17.7 147.76-17.57 147.64-17.45 147.44-17.45L147.44-17.45 144.89-17.3Q144.44-17.3 144.34-17.75L144.34-17.75Q144.34-18.2 144.29-18.35L144.29-18.35Q144.04-20.1 142.56-21.35 141.09-22.6 138.94-22.6L138.94-22.6Q136.74-22.6 135.31-21.25 133.89-19.9 133.64-17.75L133.64-17.75Q133.39-15.6 133.39-12.65L133.39-12.65Q133.39-9.65 133.64-7.5L133.64-7.5Q133.89-5.3 135.31-4 136.74-2.7 138.94-2.7L138.94-2.7Q141.14-2.7 142.61-3.95 144.09-5.2 144.29-7L144.29-7 144.34-7.4Q144.44-7.95 144.89-7.85L144.89-7.85 147.39-7.65Q147.84-7.55 147.84-7.2L147.84-7.2 147.84-7Q147.84-6.8 147.74-6.4L147.74-6.4Q147.39-3.45 144.96-1.53 142.54 0.4 138.94 0.4L138.94 0.4ZM162.94-25.55Q164.44-25.55 165.49-24.95L165.49-24.95Q165.84-24.8 165.74-24.35L165.74-24.35 165.14-21.75Q165.09-21.25 164.54-21.45L164.54-21.45Q163.74-21.8 162.79-21.8L162.79-21.8 162.19-21.75Q159.99-21.7 158.54-19.85 157.09-18 157.09-15.35L157.09-15.35 157.09-0.5Q157.09 0 156.59 0L156.59 0 154.04 0Q153.54 0 153.54-0.5L153.54-0.5 153.54-24.8Q153.54-25.3 154.04-25.3L154.04-25.3 156.59-25.3Q157.09-25.3 157.09-24.8L157.09-24.8 157.09-21.55Q157.09-21.4 157.16-21.4 157.24-21.4 157.29-21.5L157.29-21.5Q158.14-23.4 159.56-24.48 160.99-25.55 162.94-25.55L162.94-25.55ZM178.08-25.7Q182.08-25.7 184.36-23.4 186.63-21.1 186.63-17.3L186.63-17.3 186.63-0.5Q186.63 0 186.13 0L186.13 0 183.58 0Q183.08 0 183.08-0.5L183.08-0.5 183.08-2.3Q183.08-2.4 183.01-2.45 182.93-2.5 182.83-2.4L182.83-2.4Q181.73-1 180.03-0.3 178.33 0.4 176.23 0.4L176.23 0.4Q173.08 0.4 170.86-1.3 168.63-3 168.63-6.85L168.63-6.85Q168.63-10.85 171.21-12.93 173.78-15 178.23-15L178.23-15 182.88-15Q183.08-15 183.08-15.2L183.08-15.2 183.08-17.1Q183.08-19.65 181.81-21.13 180.53-22.6 178.03-22.6L178.03-22.6Q176.08-22.6 174.78-21.63 173.48-20.65 173.23-19.05L173.23-19.05Q173.18-18.6 172.68-18.6L172.68-18.6 169.93-18.75Q169.68-18.75 169.56-18.9 169.43-19.05 169.48-19.25L169.48-19.25Q169.83-22.15 172.21-23.93 174.58-25.7 178.08-25.7L178.08-25.7ZM176.93-2.7Q179.43-2.7 181.26-4.08 183.08-5.45 183.08-7.9L183.08-7.9 183.08-11.95Q183.08-12.15 182.88-12.15L182.88-12.15 178.48-12.15Q175.63-12.15 173.93-10.83 172.23-9.5 172.23-7.05L172.23-7.05Q172.23-4.85 173.53-3.78 174.83-2.7 176.93-2.7L176.93-2.7ZM191.73 0Q191.23 0 191.23-0.5L191.23-0.5 191.23-2.9Q191.23-3.3 191.43-3.55L191.43-3.55 203.68-21.8Q203.73-21.85 203.68-21.95 203.63-22.05 203.53-22.05L203.53-22.05 191.93-22.05Q191.43-22.05 191.43-22.55L191.43-22.55 191.43-24.8Q191.43-25.3 191.93-25.3L191.93-25.3 207.48-25.3Q207.98-25.3 207.98-24.8L207.98-24.8 207.98-22.4Q207.98-22 207.78-21.75L207.78-21.75 195.43-3.5Q195.38-3.45 195.43-3.35 195.48-3.25 195.58-3.25L195.58-3.25 207.53-3.25Q208.03-3.25 208.03-2.75L208.03-2.75 208.03-0.5Q208.03 0 207.53 0L207.53 0 191.73 0ZM221.78-2.7Q223.68-2.7 225.05-3.68 226.43-4.65 227.03-6.3L227.03-6.3Q227.18-6.75 227.63-6.65L227.63-6.65 229.93-6.2Q230.18-6.15 230.25-5.98 230.33-5.8 230.28-5.6L230.28-5.6Q229.43-2.8 227.18-1.2 224.93 0.4 221.73 0.4L221.73 0.4Q218.08 0.4 215.78-1.53 213.48-3.45 212.93-6.75L212.93-6.75Q212.73-8 212.68-9.7 212.63-11.4 212.63-12.53 212.63-13.65 212.63-14.1L212.63-14.1Q212.63-16.65 212.83-18.25L212.83-18.25Q213.23-21.6 215.6-23.65 217.98-25.7 221.58-25.7L221.58-25.7Q225.43-25.7 227.83-23.5 230.23-21.3 230.53-17.7L230.53-17.7Q230.68-16.05 230.68-11.65L230.68-11.65Q230.68-11.15 230.18-11.15L230.18-11.15 216.38-11.15Q216.18-11.15 216.18-10.95L216.18-10.95Q216.18-9.4 216.28-7.5L216.28-7.5Q216.53-5.35 218-4.03 219.48-2.7 221.78-2.7L221.78-2.7ZM221.63-22.6Q219.38-22.6 217.95-21.28 216.53-19.95 216.28-17.8L216.28-17.8Q216.18-15.7 216.18-14.3L216.18-14.3Q216.18-14.1 216.38-14.1L216.38-14.1 226.93-14.1Q227.13-14.1 227.13-14.3L227.13-14.3Q227.13-15.75 226.93-17.75L226.93-17.75Q226.68-19.9 225.25-21.25 223.83-22.6 221.63-22.6L221.63-22.6Z" fill="#2a2c35" data-fill-palette-color="primary"></path></g></svg></g></svg></g></svg></g></svg></g><g transform="matrix(1,0,0,1,427.91127235374597,0)"><svg viewBox="0 0 106.47904122867723 58.75361382082369" height="58.75361382082369" width="106.47904122867723"><g><svg xmlns="http://www.w3.org/2000/svg" xmlns:xlink="http://www.w3.org/1999/xlink" version="1.1" x="0" y="0" viewBox="10 26.5 70 38.625" enable-background="new 0 0 90 90" xml:space="preserve" height="58.75361382082369" width="106.47904122867723" class="icon-icon-0" data-fill-palette-color="accent" id="icon-0"><g fill="#2a2c35" data-fill-palette-color="accent"><path d="M45.375 55.125C33.365 55.125 23.119 47 19.086 37H17.25c0 15 12.592 28.125 28.125 28.125S73.5 52 73.5 37h-1.837C67.631 47 57.385 55.125 45.375 55.125z" fill="#2a2c35" data-fill-palette-color="accent"></path><circle cx="12.75" cy="29.25" r="2.8" fill="#2a2c35" data-fill-palette-color="accent"></circle><circle cx="77.25" cy="29.25" r="2.8" fill="#2a2c35" data-fill-palette-color="accent"></circle></g></svg></g></svg></g></svg></g><defs></defs></svg><rect width="395.52" height="43.485498796991145" fill="none" stroke="none" visibility="hidden"></rect></g></svg></g></svg>